<svg width="235" height="16" viewBox="0 0 235 16" fill="none" xmlns="http://www.w3.org/2000/svg">
<path d="M0.666667 8C0.666666 10.9455 3.05448 13.3333 6 13.3333C8.94552 13.3333 11.3333 10.9455 11.3333 8C11.3333 5.05448 8.94552 2.66667 6 2.66667C3.05448 2.66667 0.666667 5.05448 0.666667 8ZM234.707 8.70713C235.098 8.3166 235.098 7.68344 234.707 7.29291L228.343 0.928952C227.953 0.538427 227.319 0.538427 226.929 0.928952C226.538 1.31948 226.538 1.95264 226.929 2.34317L232.586 8.00002L226.929 13.6569C226.538 14.0474 226.538 14.6806 226.929 15.0711C227.319 15.4616 227.953 15.4616 228.343 15.0711L234.707 8.70713ZM6 9L234 9.00002L234 7.00002L6 7L6 9Z" fill="#606C38"/>
</svg>
